<?xml version="1.0" encoding="UTF-8" standalone="no"?>
<!-- Created with Inkscape (http://www.inkscape.org/) -->

<svg
   xmlns:dc="http://purl.org/dc/elements/1.1/"
   xmlns:cc="http://creativecommons.org/ns#"
   xmlns:rdf="http://www.w3.org/1999/02/22-rdf-syntax-ns#"
   xmlns:svg="http://www.w3.org/2000/svg"
   xmlns="http://www.w3.org/2000/svg"
   xmlns:sodipodi="http://sodipodi.sourceforge.net/DTD/sodipodi-0.dtd"
   xmlns:inkscape="http://www.inkscape.org/namespaces/inkscape"
   version="1.1"
   id="svg3790"
   width="500"
   height="500"
   viewBox="0 0 500 500"
   sodipodi:docname="фото3.svg"
   inkscape:version="0.92.1 r15371">
  <metadata
     id="metadata3796">
    <rdf:RDF>
      <cc:Work
         rdf:about="">
        <dc:format>image/svg+xml</dc:format>
        <dc:type
           rdf:resource="http://purl.org/dc/dcmitype/StillImage" />
        <dc:title></dc:title>
      </cc:Work>
    </rdf:RDF>
  </metadata>
  <defs
     id="defs3794" />
  <sodipodi:namedview
     pagecolor="#ffffff"
     bordercolor="#666666"
     borderopacity="1"
     objecttolerance="10"
     gridtolerance="10"
     guidetolerance="10"
     inkscape:pageopacity="0"
     inkscape:pageshadow="2"
     inkscape:window-width="1920"
     inkscape:window-height="1017"
     id="namedview3792"
     showgrid="false"
     inkscape:zoom="0.944"
     inkscape:cx="559.44294"
     inkscape:cy="194.58021"
     inkscape:window-x="-8"
     inkscape:window-y="-8"
     inkscape:window-maximized="1"
     inkscape:current-layer="svg3790" />
  <path
     style="fill:#343a40;fill-opacity:1;stroke-width:0.74905378"
     d="m 233.48173,497.27366 c -17.23392,-0.8417 -29.79144,-2.8205 -49.15103,-7.7453 -32.51739,-8.2719 -64.16781,-24.2783 -92.420137,-46.7391 -9.52618,-7.5734 -29.63117,-27.8052 -37.47793,-37.7143 -19.31627,-24.393 -32.90136,-49.4938 -42.33769,-78.2263 -3.4359696,-10.4621 -7.5326696,-27.5026 -8.9748096,-37.3314 -0.6627,-4.5166 -1.33222,-8.418 -1.48782,-8.6697 -0.98456004,-1.5931 -1.75959004,-32.6797 -1.11979004,-44.9153 C 3.1883234,184.75986 22.124583,135.36356 54.587913,94.873564 c 13.50143,-16.8397 37.21671,-38.5697 55.299937,-50.6705 47.90561,-32.05723 105.57343,-46.3725701 163.29373,-40.5357301 19.8821,2.01053 44.20869,7.8296201 62.92052,15.0510301 2.26588,0.8745 5.41405,2.068 6.9959,2.6522 1.58187,0.5843 7.10134,3.1286 12.26549,5.6542 24.93062,12.1923 45.1841,26.4585 65.2501,45.9609 9.5758,9.3069 23.70835,25.7249 29.4479,34.210096 17.17306,25.3882 26.80177,45.3005 34.6775,71.7134 7.38502,24.7672 10.47262,45.6182 10.49596,70.8806 0.0417,45.1765 -11.53925,87.5365 -34.64363,126.7165 -32.18552,54.5797 -85.15589,95.1486 -146.35085,112.087 -18.23845,5.0483 -34.28294,7.7779 -49.29848,8.387 -5.56173,0.2256 -12.13467,0.5197 -14.60655,0.6536 -2.47188,0.1339 -10.05605,-0.028 -16.85371,-0.3602 z m 43.61162,-11.944 c 52.39705,-6.7648 98.50148,-28.9544 136.04509,-65.4774 49.32903,-47.988 74.27521,-112.0331 71.12799,-182.6092 -1.9986,-44.8182 -16.64694,-86.363 -44.56852,-126.4028 -11.13631,-15.969596 -35.80517,-40.702896 -51.99273,-52.128496 -14.78258,-10.434 -23.9016,-15.86 -37.62068,-22.3852 -37.16684,-17.6777 -73.79548,-24.95663 -115.26451,-22.9057 -24.78314,1.2257 -49.63462,6.446 -71.74932,15.0717 -2.26589,0.8838 -5.3881,2.077 -6.93825,2.6515 -1.55015,0.5746 -3.40406,1.3683 -4.1198,1.7638 -0.71573,0.3955 -5.00915,2.5419 -9.54093,4.7699 -7.5323,3.703 -10.4783,5.2567 -15.38117,8.1116 -0.95092,0.5538 -5.63187,3.5708 -10.40212,6.7046 -37.306067,24.5082 -68.822907,61.814396 -85.902517,101.681996 -1.87898,4.386 -3.86114,8.9857 -4.40481,10.2216 -3.28076,7.4583 -9.14366,27.9777 -11.55726,40.4489 -3.4025,17.5811 -4.1392,25.6258 -4.14999,45.3178 -0.0108,19.7684 0.55649,25.8955 4.19615,45.3178 2.31042,12.329 8.19925,32.9959 11.52552,40.4489 0.5516,1.2359 1.90225,4.4381 3.00144,7.116 7.77312,18.9371 23.74694,44.7699 37.74911,61.0479 5.72218,6.6522 25.57899,25.827 32.25506,31.1472 38.781797,30.9057 86.741897,49.2365 134.829677,51.5332 15.14485,0.7233 29.92306,0.2249 42.86257,-1.4456 z"
     id="path3802"
     inkscape:connector-curvature="0" />
  <path
     style="fill:#343a40;fill-opacity:1;stroke-width:0.74905378"
     d="m 96.345042,377.57976 c -21.97728,-3.1188 -34.46024,-13.39716 -39.24656,-32.31526 -1.69131,-6.68494 -3.21339,-20.82942 -5.31062,-49.35052 -0.83308,-11.32944 -1.85049,-23.46411 -2.26092,-26.96594 -1.23209,-10.51234 -1.78758,-66.90127 -0.79227,-80.42466 2.03017,-27.58434 7.35516,-43.66466 18.03961,-54.47572 6.71881,-6.79846 14.43307,-10.9503 25.53244,-13.74164 14.239198,-3.58098 15.234478,-3.63153 77.930218,-3.95766 l 59.63897,-0.31024 2.90674,-5.30271 c 3.95199,-7.20951 11.01763,-14.680861 16.89975,-17.870081 l 4.73388,-2.56665 30.28735,-0.22701 c 29.68833,-0.22252 30.37483,-0.19429 34.71069,1.42721 6.72571,2.51524 11.85,7.62223 15.59569,15.543001 1.68473,3.56259 3.46493,7.32014 3.95601,8.35008 0.80172,1.68148 1.3873,1.88983 5.73646,2.04106 12.03311,0.41843 31.81198,1.84121 39.67463,2.85399 33.89377,4.36575 56.33741,18.21994 64.08243,39.55723 3.18858,8.78443 3.41345,13.55943 3.84638,81.67781 0.57652,90.70789 -0.3405,101.21951 -10.08165,115.564 -5.69782,8.39042 -13.27557,13.59699 -26.38689,18.13007 l -7.86507,2.71925 -51.68472,-0.10417 c -29.7287,-0.0599 -66.95846,-0.61649 -87.63929,-1.3102 -89.21718,-2.99266 -95.12981,-3.41715 -95.12981,-6.82972 0,-3.28747 14.09722,-5.88271 46.74228,-8.60503 11.9114,-0.99331 61.39704,-2.75238 104.56656,-3.71703 18.53907,-0.41426 42.13427,-0.94382 52.43377,-1.17679 23.08854,-0.52224 36.27078,-1.4948 39.70405,-2.92931 3.10793,-1.29858 5.96879,-4.21811 7.9716,-8.13507 1.37141,-2.68211 1.45409,-4.61399 1.44255,-33.70742 -0.0177,-44.54856 -3.36705,-121.77808 -5.68262,-131.02923 -2.06783,-8.26134 -8.60466,-19.23552 -15.45114,-25.9397 -8.37752,-8.2034 -12.7738,-8.86374 -50.72463,-7.61908 l -27.23451,0.89319 -2.2357,-2.12214 c -3.02362,-2.87003 -5.56646,-8.02622 -8.77335,-17.78996 -1.95679,-5.95764 -3.19413,-8.54809 -4.55846,-9.54335 -2.21243,-1.61395 -6.7343,-2.53642 -17.90973,-3.65365 -6.82513,-0.68233 -9.37848,-0.62014 -15.18472,0.36973 -14.16769,2.41539 -15.96612,3.68017 -19.95219,14.03189 -4.13526,10.73909 -7.12976,13.03908 -18.39745,14.13055 -9.39283,0.90985 -41.96599,2.43673 -59.64031,2.79566 l -14.60654,0.29662 -2.99622,4.60157 c -3.70127,5.68438 -10.26842,11.04687 -16.36049,13.35936 -3.71742,1.4111 -6.06724,1.75105 -12.10354,1.75105 -6.54789,0 -8.02613,-0.25107 -11.74662,-1.99512 -4.23981,-1.98748 -9.65467,-6.78758 -15.27842,-13.5438 l -2.95832,-3.55406 -6.327028,1.11241 c -15.08103,2.6515 -17.14282,4.17892 -20.91174,15.49193 -5.26525,15.80441 -6.58175,33.87875 -5.35869,73.56956 0.45837,14.87483 1.32787,34.54503 1.93223,43.71158 0.60436,9.16654 1.60137,24.26905 2.21556,33.56111 1.61928,24.4978 3.029,29.25759 10.82505,36.5499 5.8103,5.43484 15.756858,9.53394 25.885418,10.66768 5.08154,0.56881 18.05328,-2.0584 24.07382,-4.87575 6.31143,-2.95348 9.82593,-5.72186 12.38839,-9.75833 l 2.11405,-3.33013 v -21.93043 c 0,-20.03637 0.19689,-23.46863 2.27978,-39.74046 4.4739,-34.95082 12.61328,-59.15478 25.79955,-76.71984 15.81092,-21.06125 42.47418,-35.54509 79.9647,-43.43787 10.32562,-2.17383 12.73279,-2.41182 24.913,-2.4631 10.68717,-0.045 14.72554,0.23373 19.4754,1.34414 18.99309,4.44017 36.49032,13.86491 50.64572,27.27988 12.17703,11.54009 21.79871,29.74092 26.26304,49.68043 1.48342,6.62557 1.74024,9.83617 1.73077,21.63747 -0.009,11.74295 -0.27768,15.05615 -1.75801,21.71275 -3.08976,13.89381 -7.25273,23.4232 -16.34673,37.41909 -6.85488,10.54983 -20.71826,22.59968 -33.19433,28.85206 -6.33512,3.17483 -19.69534,7.52253 -27.61048,8.98503 -13.30683,2.45873 -33.32985,0.8763 -47.1693,-3.72781 -13.77167,-4.58156 -23.62113,-11.07672 -35.26195,-23.25322 -12.5114,-13.08716 -19.39424,-23.85154 -22.25531,-34.80608 -1.60584,-6.14851 -1.81621,-30.45408 -0.3369,-38.92709 1.34708,-7.7157 6.03669,-20.74054 9.65025,-26.80244 10.33198,-17.33232 31.44388,-30.2381 49.18683,-30.06808 6.72464,0.0644 11.99992,1.33705 11.99992,2.89488 0,0.67637 -2.38556,1.63185 -6.92504,2.77367 -11.54396,2.90365 -20.7157,8.11413 -30.0499,17.0714 -21.29229,20.43247 -26.10008,50.87983 -12.42698,78.69927 8.83041,17.96646 25.06262,31.73415 42.28591,35.86565 16.95389,4.06688 25.8525,4.25246 41.51645,0.86581 27.15228,-5.8705 43.29157,-19.81461 54.12197,-46.76056 4.25001,-10.574 4.93096,-15.3421 4.58702,-32.11863 -0.2757,-13.44771 -0.38677,-14.31862 -2.67046,-20.93946 -9.84162,-28.53266 -29.62171,-45.34015 -61.6004,-52.34292 -7.94834,-1.74054 -30.13331,-1.72614 -39.32532,0.0255 -20.53218,3.91272 -43.02923,18.02221 -56.17199,35.22941 -4.83798,6.33414 -10.72188,17.8673 -13.79494,27.03976 -2.11685,6.3184 -5.33265,25.34205 -6.38638,37.77981 -4.4027,51.96776 -7.03352,65.30692 -14.78187,74.9492 -4.61692,5.74543 -14.51981,12.25411 -22.27196,14.63825 -9.97627,3.06817 -37.7142,4.93819 -49.158418,3.31414 z"
     id="path3808"
     inkscape:connector-curvature="0" />
  <path
     style="fill:#343a40;fill-opacity:1;stroke-width:0.529661"
     d="m 270.95723,321.77864 c -0.15012,-0.15011 -1.56385,-0.60917 -3.14164,-1.02013 -6.9542,-1.81134 -13.89406,-5.51138 -19.32063,-10.30093 -5.49371,-4.84882 -12.98645,-14.84926 -14.84167,-19.80893 -3.84919,-10.2903 -4.09085,-11.60155 -4.12045,-22.35767 -0.0257,-9.33713 0.47557,-13.34394 2.41857,-19.33263 1.32012,-4.06882 5.62391,-12.69635 7.70658,-15.44883 4.97218,-6.57132 5.74277,-7.31419 13.29402,-12.81595 4.39089,-3.19916 11.56993,-6.61652 17.57194,-8.36458 2.44988,-0.71352 10.45606,-1.57625 15.09533,-1.62665 5.19492,-0.0564 12.82534,1.20066 17.87011,2.94404 3.9273,1.35721 12.0666,5.58936 14.8165,7.70404 1.3727,1.05566 3.0816,2.3332 3.7976,2.83899 2.964,2.09401 6.0857,8.55586 5.4182,11.2155 -0.536,2.13545 -2.2051,1.72605 -7.4675,-1.83161 -10.0595,-6.80082 -17.01893,-9.08766 -27.81414,-9.13962 -8.51248,-0.041 -13.48773,1.10079 -19.27032,4.42232 -2.00492,1.15163 -3.81517,2.09388 -4.02278,2.09388 -0.20761,0 -0.80887,0.47669 -1.33614,1.05932 -0.52727,0.58263 -1.19323,1.05932 -1.47992,1.05932 -0.97468,0 -7.22682,5.88295 -9.67926,9.1077 -7.90267,10.39134 -10.29209,17.27721 -10.29209,29.65997 0,3.83504 0.20995,7.70476 0.46655,8.59939 1.6033,5.5898 3.46841,10.81461 4.26761,11.95498 0.51039,0.72828 1.35925,2.15837 1.88635,3.17796 3.10975,6.01541 10.79874,13.44688 16.82104,16.25769 2.50533,1.16933 9.7806,3.69922 13.97716,4.8604 3.64263,1.0079 3.57324,3.34056 -0.13781,4.63244 -1.95916,0.68201 -11.89498,1.04782 -12.48321,0.45959 z"
     id="path3812"
     inkscape:connector-curvature="0" />
</svg>
